<svg xmlns="http://www.w3.org/2000/svg" xmlns:xlink="http://www.w3.org/1999/xlink" width="500" zoomAndPan="magnify" viewBox="0 0 375 374.999991" height="500" preserveAspectRatio="xMidYMid meet" version="1.0"><defs><g/><clipPath id="9fe881bae7"><path d="M 79.675781 127 L 303.738281 127 L 303.738281 253.980469 L 79.675781 253.980469 Z M 79.675781 127 " clip-rule="nonzero"/></clipPath><clipPath id="373ef9392f"><path d="M 56.753906 163 L 91 163 L 91 211 L 56.753906 211 Z M 56.753906 163 " clip-rule="nonzero"/></clipPath><clipPath id="fdb8498d52"><path d="M 292.347656 163 L 326.628906 163 L 326.628906 211 L 292.347656 211 Z M 292.347656 163 " clip-rule="nonzero"/></clipPath><clipPath id="809f00e052"><path d="M 131 100.230469 L 252 100.230469 L 252 139 L 131 139 Z M 131 100.230469 " clip-rule="nonzero"/></clipPath><clipPath id="1ac7e74ff1"><path d="M 133 144.71875 L 145 144.71875 L 145 230.21875 L 133 230.21875 Z M 133 144.71875 " clip-rule="nonzero"/></clipPath><clipPath id="2600ec0ae0"><path d="M 166 174 L 177.386719 174 L 177.386719 201 L 166 201 Z M 166 174 " clip-rule="nonzero"/></clipPath><clipPath id="aec0b8b8e9"><path d="M 101.636719 173 L 113 173 L 113 201 L 101.636719 201 Z M 101.636719 173 " clip-rule="nonzero"/></clipPath><clipPath id="365b5ecde2"><path d="M 241 144.71875 L 253 144.71875 L 253 230.21875 L 241 230.21875 Z M 241 144.71875 " clip-rule="nonzero"/></clipPath><clipPath id="9425dbb341"><path d="M 273 174 L 284.535156 174 L 284.535156 201 L 273 201 Z M 273 174 " clip-rule="nonzero"/></clipPath><clipPath id="d00a6c761e"><path d="M 208.785156 173 L 220 173 L 220 201 L 208.785156 201 Z M 208.785156 173 " clip-rule="nonzero"/></clipPath></defs><rect x="-37.5" width="450" fill="#ffffff" y="-37.499999" height="449.999989" fill-opacity="1"/><rect x="-37.5" width="450" fill="#ffffff" y="-37.499999" height="449.999989" fill-opacity="1"/><rect x="-37.5" width="450" fill="#ffffff" y="-37.499999" height="449.999989" fill-opacity="1"/><g clip-path="url(#9fe881bae7)"><path fill="#000000" d="M 201.351562 227.914062 C 206.882812 237.347656 217.09375 243.199219 228.007812 243.199219 L 262.074219 243.199219 C 279.089844 243.199219 292.925781 229.378906 292.925781 212.378906 L 292.925781 169.0625 C 292.925781 152.0625 279.089844 138.238281 262.074219 138.238281 L 121.449219 138.238281 C 104.441406 138.238281 90.609375 152.0625 90.609375 169.0625 L 90.609375 212.378906 C 90.609375 229.378906 104.441406 243.199219 121.449219 243.199219 L 155.523438 243.199219 C 166.445312 243.199219 176.648438 237.335938 182.171875 227.902344 C 184.238281 224.398438 187.820312 222.304688 191.761719 222.304688 C 191.769531 222.304688 191.769531 222.304688 191.769531 222.304688 C 195.722656 222.304688 199.304688 224.410156 201.351562 227.914062 Z M 262.074219 253.980469 L 228.007812 253.980469 C 213.277344 253.980469 199.496094 246.074219 192.039062 233.359375 C 192.039062 233.347656 192.039062 233.347656 192.039062 233.347656 C 191.941406 233.1875 191.835938 233.082031 191.761719 233.082031 C 184.027344 246.074219 170.257812 253.980469 155.523438 253.980469 L 121.449219 253.980469 C 98.488281 253.980469 79.820312 235.3125 79.820312 212.378906 L 79.820312 169.0625 C 79.820312 146.121094 98.488281 127.460938 121.449219 127.460938 L 262.074219 127.460938 C 285.035156 127.460938 303.71875 146.121094 303.71875 169.0625 L 303.71875 212.378906 C 303.71875 235.3125 285.035156 253.980469 262.074219 253.980469 " fill-opacity="1" fill-rule="nonzero"/></g><g clip-path="url(#373ef9392f)"><path fill="#000000" d="M 85.210938 210.558594 L 70.1875 210.558594 C 62.851562 210.558594 56.886719 204.597656 56.886719 197.269531 L 56.886719 176.945312 C 56.886719 169.632812 62.851562 163.671875 70.1875 163.671875 L 85.210938 163.671875 C 88.195312 163.671875 90.609375 166.082031 90.609375 169.0625 C 90.609375 172.039062 88.195312 174.453125 85.210938 174.453125 L 70.1875 174.453125 C 68.804688 174.453125 67.675781 175.566406 67.675781 176.945312 L 67.675781 197.269531 C 67.675781 198.652344 68.804688 199.777344 70.1875 199.777344 L 85.210938 199.777344 C 88.195312 199.777344 90.609375 202.1875 90.609375 205.167969 C 90.609375 208.144531 88.195312 210.558594 85.210938 210.558594 " fill-opacity="1" fill-rule="nonzero"/></g><g clip-path="url(#fdb8498d52)"><path fill="#000000" d="M 313.34375 210.558594 L 298.320312 210.558594 C 295.339844 210.558594 292.925781 208.144531 292.925781 205.167969 C 292.925781 202.1875 295.339844 199.777344 298.320312 199.777344 L 313.34375 199.777344 C 314.726562 199.777344 315.84375 198.652344 315.84375 197.269531 L 315.84375 176.945312 C 315.84375 175.566406 314.726562 174.453125 313.34375 174.453125 L 298.320312 174.453125 C 295.339844 174.453125 292.925781 172.039062 292.925781 169.0625 C 292.925781 166.082031 295.339844 163.671875 298.320312 163.671875 L 313.34375 163.671875 C 320.667969 163.671875 326.632812 169.632812 326.632812 176.945312 L 326.632812 197.269531 C 326.632812 204.597656 320.667969 210.558594 313.34375 210.558594 " fill-opacity="1" fill-rule="nonzero"/></g><g clip-path="url(#809f00e052)"><path fill="#000000" d="M 246.28125 138.238281 C 243.300781 138.238281 240.882812 135.832031 240.882812 132.851562 L 240.882812 122.019531 C 240.882812 115.945312 235.945312 111.007812 229.863281 111.007812 L 153.660156 111.007812 C 147.582031 111.007812 142.636719 115.945312 142.636719 122.019531 L 142.636719 132.851562 C 142.636719 135.832031 140.226562 138.238281 137.246094 138.238281 C 134.257812 138.238281 131.847656 135.832031 131.847656 132.851562 L 131.847656 122.019531 C 131.847656 110.007812 141.636719 100.230469 153.660156 100.230469 L 229.863281 100.230469 C 241.886719 100.230469 251.671875 110.007812 251.671875 122.019531 L 251.671875 132.851562 C 251.671875 135.832031 249.261719 138.238281 246.28125 138.238281 " fill-opacity="1" fill-rule="nonzero"/></g><g clip-path="url(#1ac7e74ff1)"><path fill="#66fcf1" d="M 139.480469 230.042969 C 136.429688 230.042969 133.964844 227.582031 133.964844 224.539062 L 133.964844 150.398438 C 133.964844 147.355469 136.429688 144.898438 139.480469 144.898438 C 142.53125 144.898438 144.996094 147.355469 144.996094 150.398438 L 144.996094 224.539062 C 144.996094 227.582031 142.53125 230.042969 139.480469 230.042969 Z M 139.480469 230.042969 " fill-opacity="1" fill-rule="nonzero"/></g><path fill="#66fcf1" d="M 155.675781 216.464844 C 152.625 216.464844 150.160156 214.007812 150.160156 210.964844 L 150.160156 163.976562 C 150.160156 160.933594 152.625 158.476562 155.675781 158.476562 C 158.726562 158.476562 161.191406 160.933594 161.191406 163.976562 L 161.191406 210.964844 C 161.191406 213.949219 158.726562 216.464844 155.675781 216.464844 Z M 155.675781 216.464844 " fill-opacity="1" fill-rule="nonzero"/><g clip-path="url(#2600ec0ae0)"><path fill="#66fcf1" d="M 171.871094 200.898438 C 168.816406 200.898438 166.355469 198.441406 166.355469 195.398438 L 166.355469 179.539062 C 166.355469 176.496094 168.816406 174.039062 171.871094 174.039062 C 174.921875 174.039062 177.386719 176.496094 177.386719 179.539062 L 177.386719 195.457031 C 177.386719 198.441406 174.863281 200.898438 171.871094 200.898438 Z M 171.871094 200.898438 " fill-opacity="1" fill-rule="nonzero"/></g><path fill="#66fcf1" d="M 123.34375 216.464844 C 120.292969 216.464844 117.828125 214.007812 117.828125 210.964844 L 117.828125 163.976562 C 117.828125 160.933594 120.292969 158.476562 123.34375 158.476562 C 126.394531 158.476562 128.859375 160.933594 128.859375 163.976562 L 128.859375 210.964844 C 128.800781 213.949219 126.335938 216.464844 123.34375 216.464844 Z M 123.34375 216.464844 " fill-opacity="1" fill-rule="nonzero"/><g clip-path="url(#aec0b8b8e9)"><path fill="#66fcf1" d="M 107.152344 200.898438 C 104.097656 200.898438 101.636719 198.441406 101.636719 195.398438 L 101.636719 179.480469 C 101.636719 176.441406 104.097656 173.980469 107.152344 173.980469 C 110.203125 173.980469 112.664062 176.441406 112.664062 179.480469 L 112.664062 195.398438 C 112.664062 198.441406 110.144531 200.898438 107.152344 200.898438 Z M 107.152344 200.898438 " fill-opacity="1" fill-rule="nonzero"/></g><g clip-path="url(#365b5ecde2)"><path fill="#66fcf1" d="M 246.628906 230.042969 C 243.578125 230.042969 241.113281 227.582031 241.113281 224.539062 L 241.113281 150.398438 C 241.113281 147.355469 243.578125 144.898438 246.628906 144.898438 C 249.679688 144.898438 252.144531 147.355469 252.144531 150.398438 L 252.144531 224.539062 C 252.144531 227.582031 249.679688 230.042969 246.628906 230.042969 Z M 246.628906 230.042969 " fill-opacity="1" fill-rule="nonzero"/></g><path fill="#66fcf1" d="M 262.824219 216.464844 C 259.773438 216.464844 257.308594 214.007812 257.308594 210.964844 L 257.308594 163.976562 C 257.308594 160.933594 259.773438 158.476562 262.824219 158.476562 C 265.875 158.476562 268.339844 160.933594 268.339844 163.976562 L 268.339844 210.964844 C 268.339844 213.949219 265.875 216.464844 262.824219 216.464844 Z M 262.824219 216.464844 " fill-opacity="1" fill-rule="nonzero"/><g clip-path="url(#9425dbb341)"><path fill="#66fcf1" d="M 279.019531 200.898438 C 275.96875 200.898438 273.503906 198.441406 273.503906 195.398438 L 273.503906 179.539062 C 273.503906 176.496094 275.96875 174.039062 279.019531 174.039062 C 282.070312 174.039062 284.535156 176.496094 284.535156 179.539062 L 284.535156 195.457031 C 284.535156 198.441406 282.011719 200.898438 279.019531 200.898438 Z M 279.019531 200.898438 " fill-opacity="1" fill-rule="nonzero"/></g><path fill="#66fcf1" d="M 230.492188 216.464844 C 227.441406 216.464844 224.980469 214.007812 224.980469 210.964844 L 224.980469 163.976562 C 224.980469 160.933594 227.441406 158.476562 230.492188 158.476562 C 233.546875 158.476562 236.007812 160.933594 236.007812 163.976562 L 236.007812 210.964844 C 235.949219 213.949219 233.488281 216.464844 230.492188 216.464844 Z M 230.492188 216.464844 " fill-opacity="1" fill-rule="nonzero"/><g clip-path="url(#d00a6c761e)"><path fill="#66fcf1" d="M 214.300781 200.898438 C 211.25 200.898438 208.785156 198.441406 208.785156 195.398438 L 208.785156 179.480469 C 208.785156 176.441406 211.25 173.980469 214.300781 173.980469 C 217.351562 173.980469 219.816406 176.441406 219.816406 179.480469 L 219.816406 195.398438 C 219.816406 198.441406 217.292969 200.898438 214.300781 200.898438 Z M 214.300781 200.898438 " fill-opacity="1" fill-rule="nonzero"/></g><g fill="#000000" fill-opacity="1"><g transform="translate(92.163442, 307.695712)"><g><path d="M 24.671875 -20.1875 C 26.679688 -19.25 28.25 -18.023438 29.375 -16.515625 C 30.507812 -15.015625 31.078125 -13.273438 31.078125 -11.296875 C 31.078125 -7.410156 29.800781 -4.554688 27.25 -2.734375 C 24.695312 -0.910156 21.515625 0 17.703125 0 L 4.9375 0 L 4.9375 -38.3125 L 16.1875 -38.3125 C 20.25 -38.3125 23.441406 -37.484375 25.765625 -35.828125 C 28.085938 -34.179688 29.25 -31.796875 29.25 -28.671875 C 29.25 -26.765625 28.847656 -25.09375 28.046875 -23.65625 C 27.253906 -22.21875 26.128906 -21.0625 24.671875 -20.1875 Z M 12.484375 -22.640625 L 17.078125 -22.640625 C 18.460938 -22.640625 19.535156 -23.0625 20.296875 -23.90625 C 21.054688 -24.757812 21.4375 -25.8125 21.4375 -27.0625 C 21.4375 -28.34375 21.003906 -29.320312 20.140625 -30 C 19.273438 -30.675781 18.078125 -31.015625 16.546875 -31.015625 L 12.484375 -31.015625 Z M 17.328125 -7.03125 C 19.097656 -7.03125 20.53125 -7.382812 21.625 -8.09375 C 22.71875 -8.800781 23.265625 -9.867188 23.265625 -11.296875 C 23.265625 -14.003906 21.113281 -15.359375 16.8125 -15.359375 L 12.484375 -15.359375 L 12.484375 -7.03125 Z M 17.328125 -7.03125 "/></g></g></g><g fill="#000000" fill-opacity="1"><g transform="translate(125.835197, 307.695712)"><g><path d="M 26.640625 -22.75 L 26.640625 0 L 20.03125 0 L 19.515625 -3.640625 C 18.722656 -2.179688 17.601562 -1.023438 16.15625 -0.171875 C 14.71875 0.671875 13.03125 1.09375 11.09375 1.09375 C 9.007812 1.09375 7.269531 0.453125 5.875 -0.828125 C 4.488281 -2.117188 3.78125 -3.75 3.75 -5.71875 L 3.75 -22.75 L 11.03125 -22.75 L 11.03125 -8.4375 C 11.132812 -6.207031 12.160156 -5.09375 14.109375 -5.09375 C 15.703125 -5.09375 16.972656 -5.875 17.921875 -7.4375 C 18.878906 -9 19.359375 -11.015625 19.359375 -13.484375 L 19.359375 -22.75 Z M 26.640625 -22.75 "/></g></g></g><g fill="#000000" fill-opacity="1"><g transform="translate(156.228253, 307.695712)"><g><path d="M 33.71875 -23.890625 C 35.945312 -23.890625 37.726562 -23.265625 39.0625 -22.015625 C 40.394531 -20.765625 41.097656 -19.117188 41.171875 -17.078125 L 41.171875 0 L 33.9375 0 L 33.9375 -14.046875 C 33.863281 -15.191406 33.671875 -16.050781 33.359375 -16.625 C 33.046875 -17.195312 32.441406 -17.519531 31.546875 -17.59375 C 29.835938 -17.59375 28.503906 -16.765625 27.546875 -15.109375 C 26.597656 -13.460938 26.125 -11.53125 26.125 -9.3125 L 26.125 0 L 18.84375 0 L 18.84375 -14.046875 C 18.769531 -15.191406 18.5625 -16.050781 18.21875 -16.625 C 17.875 -17.195312 17.234375 -17.519531 16.296875 -17.59375 C 14.660156 -17.59375 13.375 -16.765625 12.4375 -15.109375 C 11.5 -13.460938 11.03125 -11.566406 11.03125 -9.421875 L 11.03125 0 L 3.75 0 L 3.75 -22.75 L 10.359375 -22.75 L 10.875 -19.15625 C 12.71875 -22.3125 15.457031 -23.890625 19.09375 -23.890625 C 20.9375 -23.890625 22.457031 -23.515625 23.65625 -22.765625 C 24.851562 -22.023438 25.675781 -20.925781 26.125 -19.46875 C 27.09375 -20.820312 28.242188 -21.894531 29.578125 -22.6875 C 30.921875 -23.488281 32.300781 -23.890625 33.71875 -23.890625 Z M 33.71875 -23.890625 "/></g></g></g><g fill="#000000" fill-opacity="1"><g transform="translate(201.141275, 307.695712)"><g><path d="M 4.9375 -38.3125 L 16.390625 -38.3125 C 21.285156 -38.3125 25.3125 -37.363281 28.46875 -35.46875 C 31.625 -33.582031 33.921875 -31.132812 35.359375 -28.125 C 36.804688 -25.125 37.53125 -21.910156 37.53125 -18.484375 C 37.53125 -14.796875 36.660156 -11.546875 34.921875 -8.734375 C 33.191406 -5.929688 30.859375 -3.773438 27.921875 -2.265625 C 24.992188 -0.753906 21.773438 0 18.265625 0 L 4.9375 0 Z M 16.96875 -7.28125 C 20.882812 -7.28125 23.988281 -8.285156 26.28125 -10.296875 C 28.570312 -12.316406 29.71875 -15.21875 29.71875 -19 C 29.71875 -22.050781 29.082031 -24.476562 27.8125 -26.28125 C 26.550781 -28.082031 25.078125 -29.332031 23.390625 -30.03125 C 21.710938 -30.726562 20.125 -31.078125 18.625 -31.078125 L 12.484375 -31.078125 L 12.484375 -7.28125 Z M 16.96875 -7.28125 "/></g></g></g><g fill="#000000" fill-opacity="1"><g transform="translate(241.266353, 307.695712)"><g><path d="M 15.09375 -5.5625 C 16.550781 -5.5625 18.0625 -6.066406 19.625 -7.078125 L 22.84375 -1.671875 C 21.59375 -0.972656 20.273438 -0.414062 18.890625 0 C 17.503906 0.414062 16.1875 0.625 14.9375 0.625 C 12.226562 0.625 9.894531 0.113281 7.9375 -0.90625 C 5.976562 -1.9375 4.492188 -3.378906 3.484375 -5.234375 C 2.484375 -7.085938 1.984375 -9.210938 1.984375 -11.609375 C 1.984375 -13.828125 2.5625 -15.875 3.71875 -17.75 C 4.882812 -19.625 6.472656 -21.109375 8.484375 -22.203125 C 10.492188 -23.296875 12.695312 -23.84375 15.09375 -23.84375 C 18.351562 -23.84375 21.03125 -22.882812 23.125 -20.96875 C 25.226562 -19.0625 26.59375 -16.335938 27.21875 -12.796875 L 10.5625 -7.5 C 11.675781 -6.207031 13.1875 -5.5625 15.09375 -5.5625 Z M 14.515625 -18.171875 C 12.890625 -18.171875 11.585938 -17.613281 10.609375 -16.5 C 9.640625 -15.382812 9.15625 -13.890625 9.15625 -12.015625 L 9.15625 -11.546875 L 19.15625 -14.9375 C 18.425781 -17.09375 16.878906 -18.171875 14.515625 -18.171875 Z M 14.515625 -18.171875 "/></g></g></g><g fill="#000000" fill-opacity="1"><g transform="translate(270.046079, 307.695712)"><g><path d="M 23.0625 -2.03125 C 22.050781 -1.226562 20.789062 -0.582031 19.28125 -0.09375 C 17.769531 0.382812 16.285156 0.625 14.828125 0.625 C 10.878906 0.625 7.75 -0.441406 5.4375 -2.578125 C 3.132812 -4.710938 1.984375 -7.648438 1.984375 -11.390625 C 1.984375 -13.828125 2.546875 -15.953125 3.671875 -17.765625 C 4.796875 -19.585938 6.273438 -20.976562 8.109375 -21.9375 C 9.953125 -22.894531 11.929688 -23.375 14.046875 -23.375 C 17.828125 -23.375 20.898438 -22.363281 23.265625 -20.34375 L 19.71875 -15.671875 C 18.226562 -16.847656 16.566406 -17.4375 14.734375 -17.4375 C 13.203125 -17.4375 11.90625 -16.863281 10.84375 -15.71875 C 9.789062 -14.570312 9.265625 -13.128906 9.265625 -11.390625 C 9.265625 -9.660156 9.835938 -8.210938 10.984375 -7.046875 C 12.128906 -5.890625 13.617188 -5.3125 15.453125 -5.3125 C 17.054688 -5.3125 18.375 -5.742188 19.40625 -6.609375 Z M 23.0625 -2.03125 "/></g></g></g></svg>