<svg xmlns="http://www.w3.org/2000/svg" xmlns:xlink="http://www.w3.org/1999/xlink" width="500" zoomAndPan="magnify" viewBox="0 0 375 374.999991" height="500" preserveAspectRatio="xMidYMid meet" version="1.0"><defs><clipPath id="ddde29d87b"><path d="M 79.675781 127 L 303.738281 127 L 303.738281 253.980469 L 79.675781 253.980469 Z M 79.675781 127 " clip-rule="nonzero"/></clipPath><clipPath id="7b320cba95"><path d="M 56.753906 163 L 91 163 L 91 211 L 56.753906 211 Z M 56.753906 163 " clip-rule="nonzero"/></clipPath><clipPath id="f244361467"><path d="M 292.347656 163 L 326.628906 163 L 326.628906 211 L 292.347656 211 Z M 292.347656 163 " clip-rule="nonzero"/></clipPath><clipPath id="9148ffaf6d"><path d="M 131 100.230469 L 252 100.230469 L 252 139 L 131 139 Z M 131 100.230469 " clip-rule="nonzero"/></clipPath><clipPath id="6fd099740f"><path d="M 133 144.71875 L 145 144.71875 L 145 230.21875 L 133 230.21875 Z M 133 144.71875 " clip-rule="nonzero"/></clipPath><clipPath id="fcd76620e7"><path d="M 166 174 L 177.386719 174 L 177.386719 201 L 166 201 Z M 166 174 " clip-rule="nonzero"/></clipPath><clipPath id="a067d16f44"><path d="M 101.636719 173 L 113 173 L 113 201 L 101.636719 201 Z M 101.636719 173 " clip-rule="nonzero"/></clipPath><clipPath id="c214b933ff"><path d="M 241 144.71875 L 253 144.71875 L 253 230.21875 L 241 230.21875 Z M 241 144.71875 " clip-rule="nonzero"/></clipPath><clipPath id="a633ac1abd"><path d="M 273 174 L 284.535156 174 L 284.535156 201 L 273 201 Z M 273 174 " clip-rule="nonzero"/></clipPath><clipPath id="ddea5a1aef"><path d="M 208.785156 173 L 220 173 L 220 201 L 208.785156 201 Z M 208.785156 173 " clip-rule="nonzero"/></clipPath></defs><rect x="-37.5" width="450" fill="#ffffff" y="-37.499999" height="449.999989" fill-opacity="1"/><rect x="-37.5" width="450" fill="#ffffff" y="-37.499999" height="449.999989" fill-opacity="1"/><rect x="-37.5" width="450" fill="#000000" y="-37.499999" height="449.999989" fill-opacity="1"/><g clip-path="url(#ddde29d87b)"><path fill="#66fcf1" d="M 201.351562 227.914062 C 206.882812 237.347656 217.09375 243.199219 228.007812 243.199219 L 262.074219 243.199219 C 279.089844 243.199219 292.925781 229.378906 292.925781 212.378906 L 292.925781 169.0625 C 292.925781 152.0625 279.089844 138.238281 262.074219 138.238281 L 121.449219 138.238281 C 104.441406 138.238281 90.609375 152.0625 90.609375 169.0625 L 90.609375 212.378906 C 90.609375 229.378906 104.441406 243.199219 121.449219 243.199219 L 155.523438 243.199219 C 166.445312 243.199219 176.648438 237.335938 182.171875 227.902344 C 184.238281 224.398438 187.820312 222.304688 191.761719 222.304688 C 191.769531 222.304688 191.769531 222.304688 191.769531 222.304688 C 195.722656 222.304688 199.304688 224.410156 201.351562 227.914062 Z M 262.074219 253.980469 L 228.007812 253.980469 C 213.277344 253.980469 199.496094 246.074219 192.039062 233.359375 C 192.039062 233.347656 192.039062 233.347656 192.039062 233.347656 C 191.941406 233.1875 191.835938 233.082031 191.761719 233.082031 C 184.027344 246.074219 170.257812 253.980469 155.523438 253.980469 L 121.449219 253.980469 C 98.488281 253.980469 79.820312 235.3125 79.820312 212.378906 L 79.820312 169.0625 C 79.820312 146.121094 98.488281 127.460938 121.449219 127.460938 L 262.074219 127.460938 C 285.035156 127.460938 303.71875 146.121094 303.71875 169.0625 L 303.71875 212.378906 C 303.71875 235.3125 285.035156 253.980469 262.074219 253.980469 " fill-opacity="1" fill-rule="nonzero"/></g><g clip-path="url(#7b320cba95)"><path fill="#66fcf1" d="M 85.210938 210.558594 L 70.1875 210.558594 C 62.851562 210.558594 56.886719 204.597656 56.886719 197.269531 L 56.886719 176.945312 C 56.886719 169.632812 62.851562 163.671875 70.1875 163.671875 L 85.210938 163.671875 C 88.195312 163.671875 90.609375 166.082031 90.609375 169.0625 C 90.609375 172.039062 88.195312 174.453125 85.210938 174.453125 L 70.1875 174.453125 C 68.804688 174.453125 67.675781 175.566406 67.675781 176.945312 L 67.675781 197.269531 C 67.675781 198.652344 68.804688 199.777344 70.1875 199.777344 L 85.210938 199.777344 C 88.195312 199.777344 90.609375 202.1875 90.609375 205.167969 C 90.609375 208.144531 88.195312 210.558594 85.210938 210.558594 " fill-opacity="1" fill-rule="nonzero"/></g><g clip-path="url(#f244361467)"><path fill="#66fcf1" d="M 313.34375 210.558594 L 298.320312 210.558594 C 295.339844 210.558594 292.925781 208.144531 292.925781 205.167969 C 292.925781 202.1875 295.339844 199.777344 298.320312 199.777344 L 313.34375 199.777344 C 314.726562 199.777344 315.84375 198.652344 315.84375 197.269531 L 315.84375 176.945312 C 315.84375 175.566406 314.726562 174.453125 313.34375 174.453125 L 298.320312 174.453125 C 295.339844 174.453125 292.925781 172.039062 292.925781 169.0625 C 292.925781 166.082031 295.339844 163.671875 298.320312 163.671875 L 313.34375 163.671875 C 320.667969 163.671875 326.632812 169.632812 326.632812 176.945312 L 326.632812 197.269531 C 326.632812 204.597656 320.667969 210.558594 313.34375 210.558594 " fill-opacity="1" fill-rule="nonzero"/></g><g clip-path="url(#9148ffaf6d)"><path fill="#66fcf1" d="M 246.28125 138.238281 C 243.300781 138.238281 240.882812 135.832031 240.882812 132.851562 L 240.882812 122.019531 C 240.882812 115.945312 235.945312 111.007812 229.863281 111.007812 L 153.660156 111.007812 C 147.582031 111.007812 142.636719 115.945312 142.636719 122.019531 L 142.636719 132.851562 C 142.636719 135.832031 140.226562 138.238281 137.246094 138.238281 C 134.257812 138.238281 131.847656 135.832031 131.847656 132.851562 L 131.847656 122.019531 C 131.847656 110.007812 141.636719 100.230469 153.660156 100.230469 L 229.863281 100.230469 C 241.886719 100.230469 251.671875 110.007812 251.671875 122.019531 L 251.671875 132.851562 C 251.671875 135.832031 249.261719 138.238281 246.28125 138.238281 " fill-opacity="1" fill-rule="nonzero"/></g><g clip-path="url(#6fd099740f)"><path fill="#66fcf1" d="M 139.480469 230.042969 C 136.429688 230.042969 133.964844 227.582031 133.964844 224.539062 L 133.964844 150.398438 C 133.964844 147.355469 136.429688 144.898438 139.480469 144.898438 C 142.53125 144.898438 144.996094 147.355469 144.996094 150.398438 L 144.996094 224.539062 C 144.996094 227.582031 142.53125 230.042969 139.480469 230.042969 Z M 139.480469 230.042969 " fill-opacity="1" fill-rule="nonzero"/></g><path fill="#66fcf1" d="M 155.675781 216.464844 C 152.625 216.464844 150.160156 214.007812 150.160156 210.964844 L 150.160156 163.976562 C 150.160156 160.933594 152.625 158.476562 155.675781 158.476562 C 158.726562 158.476562 161.191406 160.933594 161.191406 163.976562 L 161.191406 210.964844 C 161.191406 213.949219 158.726562 216.464844 155.675781 216.464844 Z M 155.675781 216.464844 " fill-opacity="1" fill-rule="nonzero"/><g clip-path="url(#fcd76620e7)"><path fill="#66fcf1" d="M 171.871094 200.898438 C 168.816406 200.898438 166.355469 198.441406 166.355469 195.398438 L 166.355469 179.539062 C 166.355469 176.496094 168.816406 174.039062 171.871094 174.039062 C 174.921875 174.039062 177.386719 176.496094 177.386719 179.539062 L 177.386719 195.457031 C 177.386719 198.441406 174.863281 200.898438 171.871094 200.898438 Z M 171.871094 200.898438 " fill-opacity="1" fill-rule="nonzero"/></g><path fill="#66fcf1" d="M 123.34375 216.464844 C 120.292969 216.464844 117.828125 214.007812 117.828125 210.964844 L 117.828125 163.976562 C 117.828125 160.933594 120.292969 158.476562 123.34375 158.476562 C 126.394531 158.476562 128.859375 160.933594 128.859375 163.976562 L 128.859375 210.964844 C 128.800781 213.949219 126.335938 216.464844 123.34375 216.464844 Z M 123.34375 216.464844 " fill-opacity="1" fill-rule="nonzero"/><g clip-path="url(#a067d16f44)"><path fill="#66fcf1" d="M 107.152344 200.898438 C 104.097656 200.898438 101.636719 198.441406 101.636719 195.398438 L 101.636719 179.480469 C 101.636719 176.441406 104.097656 173.980469 107.152344 173.980469 C 110.203125 173.980469 112.664062 176.441406 112.664062 179.480469 L 112.664062 195.398438 C 112.664062 198.441406 110.144531 200.898438 107.152344 200.898438 Z M 107.152344 200.898438 " fill-opacity="1" fill-rule="nonzero"/></g><g clip-path="url(#c214b933ff)"><path fill="#66fcf1" d="M 246.628906 230.042969 C 243.578125 230.042969 241.113281 227.582031 241.113281 224.539062 L 241.113281 150.398438 C 241.113281 147.355469 243.578125 144.898438 246.628906 144.898438 C 249.679688 144.898438 252.144531 147.355469 252.144531 150.398438 L 252.144531 224.539062 C 252.144531 227.582031 249.679688 230.042969 246.628906 230.042969 Z M 246.628906 230.042969 " fill-opacity="1" fill-rule="nonzero"/></g><path fill="#66fcf1" d="M 262.824219 216.464844 C 259.773438 216.464844 257.308594 214.007812 257.308594 210.964844 L 257.308594 163.976562 C 257.308594 160.933594 259.773438 158.476562 262.824219 158.476562 C 265.875 158.476562 268.339844 160.933594 268.339844 163.976562 L 268.339844 210.964844 C 268.339844 213.949219 265.875 216.464844 262.824219 216.464844 Z M 262.824219 216.464844 " fill-opacity="1" fill-rule="nonzero"/><g clip-path="url(#a633ac1abd)"><path fill="#66fcf1" d="M 279.019531 200.898438 C 275.96875 200.898438 273.503906 198.441406 273.503906 195.398438 L 273.503906 179.539062 C 273.503906 176.496094 275.96875 174.039062 279.019531 174.039062 C 282.070312 174.039062 284.535156 176.496094 284.535156 179.539062 L 284.535156 195.457031 C 284.535156 198.441406 282.011719 200.898438 279.019531 200.898438 Z M 279.019531 200.898438 " fill-opacity="1" fill-rule="nonzero"/></g><path fill="#66fcf1" d="M 230.492188 216.464844 C 227.441406 216.464844 224.980469 214.007812 224.980469 210.964844 L 224.980469 163.976562 C 224.980469 160.933594 227.441406 158.476562 230.492188 158.476562 C 233.546875 158.476562 236.007812 160.933594 236.007812 163.976562 L 236.007812 210.964844 C 235.949219 213.949219 233.488281 216.464844 230.492188 216.464844 Z M 230.492188 216.464844 " fill-opacity="1" fill-rule="nonzero"/><g clip-path="url(#ddea5a1aef)"><path fill="#66fcf1" d="M 214.300781 200.898438 C 211.25 200.898438 208.785156 198.441406 208.785156 195.398438 L 208.785156 179.480469 C 208.785156 176.441406 211.25 173.980469 214.300781 173.980469 C 217.351562 173.980469 219.816406 176.441406 219.816406 179.480469 L 219.816406 195.398438 C 219.816406 198.441406 217.292969 200.898438 214.300781 200.898438 Z M 214.300781 200.898438 " fill-opacity="1" fill-rule="nonzero"/></g></svg>